<svg width="24" height="24" viewBox="0 0 24 24" class="avatarSvg" xmlns="http://www.w3.org/2000/svg"><g clip-path="url(#circleClipPath)"><rect class="avatarBg" width="24" height="24" rx="12"></rect><mask id="circleMask" style="mask-type:alpha" maskUnits="userSpaceOnUse" x="2" y="2" width="20" height="20"><circle class="avatarCircle" cx="12" cy="12" r="10"></circle></mask><g mask="url(#circleMask)"><rect class="avatarRectangle" x="8" y="5" width="8" height="9" rx="4"></rect><path class="avatarPath" fill-rule="evenodd" clip-rule="evenodd" d="M8.46493 15.3486C4.40509 16.1779 1.5 18.3952 1.5 21.0001C1.5 24.3138 6.20101 27.0001 12 27.0001C17.799 27.0001 22.5 24.3138 22.5 21.0001C22.5 18.3952 19.5949 16.1779 15.5351 15.3486C14.5436 16.0727 13.3217 16.5001 12 16.5001C10.6783 16.5001 9.45637 16.0727 8.46493 15.3486Z"></path></g></g><defs><linearGradient id="rectangleGradient" x1="19.5" y1="14.1909" x2="10.0932" y2="7.27086" gradientUnits="userSpaceOnUse"><stop stop-color="#0071eb"></stop><stop offset="1" stop-color="#6f1385"></stop></linearGradient><linearGradient id="pathGradient" x1="18" y1="22.0001" x2="10.9354" y2="10.3092" gradientUnits="userSpaceOnUse"><stop stop-color="#0071eb"></stop><stop offset="1" stop-color="#6f1385"></stop></linearGradient><linearGradient id="circleGradient" x1="4.94658" y1="2.2918" x2="19.0534" y2="21.7082" gradientUnits="userSpaceOnUse"><stop stop-color="#0071eb"></stop><stop offset="1" stop-color="#6f1385"></stop></linearGradient><clipPath id="circleClipPath"><rect width="24" height="24" rx="12" fill="white"></rect></clipPath></defs></svg>