<svg class="MuiSvgIcon-root MuiSvgIcon-fontSizeMedium css-h8rt75" focusable="false" aria-hidden="true" viewBox="0 0 12 12" fill="none"><path fill-rule="evenodd" clip-rule="evenodd" d="M10.6645 12L6.2575 7.59302L7.59302 6.2575L12 10.6645L10.6645 12Z" fill="#54595e"></path><path fill-rule="evenodd" clip-rule="evenodd" d="M4.5 9C6.98528 9 9 6.98528 9 4.5C9 2.01472 6.98528 0 4.5 0C2.01472 0 0 2.01472 0 4.5C0 6.98528 2.01472 9 4.5 9ZM7 4.5C7 5.88071 5.88071 7 4.5 7C3.11929 7 2 5.88071 2 4.5C2 3.11929 3.11929 2 4.5 2C5.88071 2 7 3.11929 7 4.5Z" fill="#54595e"></path></svg>