<svg width="91" height="18" viewBox="0 0 91 18" fill="none" xmlns="http://www.w3.org/2000/svg" class="css-pylinu"><path fill-rule="evenodd" clip-rule="evenodd" d="M18.175 4.66871C19.25 4.66871 20.125 3.78409 20.125 2.69727C20.125 1.61045 19.275 0.751105 18.175 0.72583C17.1 0.72583 16.225 1.61045 16.225 2.69727C16.225 3.78409 17.1 4.66871 18.175 4.66871ZM2.625 9.0918C2.625 7.52476 3.25 6.10936 4.275 5.0731C5.3 4.03683 6.675 3.40496 8.225 3.40496C9.775 3.40496 11.175 4.03683 12.2 5.0731C13.225 6.10936 13.85 7.52476 13.85 9.0918C13.85 10.6588 13.225 12.049 12.225 13.1105C11.2 14.1468 9.8 14.7786 8.25 14.7786C6.7 14.7786 5.3 14.1468 4.275 13.1105C3.25 12.0742 2.625 10.6588 2.625 9.0918ZM8.25 0.751097C3.7 0.751097 0 4.49177 0 9.0918C0 13.6918 3.675 17.4072 8.25 17.4325C12.8 17.4325 16.5 13.6918 16.5 9.0918C16.5 4.49177 12.8 0.751097 8.25 0.751097ZM24.65 7.64733V3.6539H29.975C31.075 3.6539 31.95 4.53852 31.95 5.65062C31.95 6.76271 31.075 7.64733 29.975 7.64733H24.65ZM31.275 10.1495C33.175 9.56822 34.575 7.79898 34.575 5.67589C34.575 3.09785 32.5 1.00004 29.95 1.00004H22V16.999H24.65V10.3265H28.325L32.3 16.999H35.375L31.275 10.1495ZM48.25 1.00004V3.6539H39.875V7.6726H47.825V10.3265H39.875V14.3452H48.25V16.999H37.225V1.00004H48.25ZM53.65 1.00004H51V16.999H53.65V1.00004ZM56.4 1.00004V16.999H66.675V14.3452H59.05V1.00004H56.4ZM68.825 16.999V1.00004H71.45V14.3452H79.075V16.999H68.825ZM87.625 1.00004H90.825L84.875 9.71987V16.999H82.25V9.69459L76.3 1.00004H79.5L83.575 6.93963L87.625 1.00004Z" fill="#D3002D"></path></svg>