<svg width="36" height="36" viewBox="0 0 36 36" fill="none" xmlns="http://www.w3.org/2000/svg"><circle cx="18" cy="18" r="18" fill="url(#paint0_radial_98_5705)"></circle><path d="M13.5 24.7142C13.5 25.4465 14.1103 26 14.8705 26C15.2516 26 15.5789 25.8528 15.8282 25.6304L23.0755 18.9405L23.0798 18.9365C23.3461 18.6849 23.5 18.3615 23.5 17.9957C23.5 17.6558 23.3585 17.3032 23.0681 17.0527L15.8274 10.3773C15.5804 10.1451 15.2483 10 14.8705 10C14.1103 10 13.5 10.5535 13.5 11.2858C13.5 11.6367 13.6486 11.956 13.8816 12.1898L13.8891 12.1974L20.166 17.9959L13.8966 23.7956L13.8927 23.7993C13.6448 24.0335 13.5 24.3602 13.5 24.7142Z" fill="white"></path><defs><radialGradient id="paint0_radial_98_5705" cx="0" cy="0" r="1" gradientUnits="userSpaceOnUse" gradientTransform="translate(14 10.5) rotate(-137.603) scale(15.5724 16.983)"><stop stop-color="#0054B5"></stop><stop offset="1" stop-color="#0071EB"></stop></radialGradient></defs></svg>